<svg version="1.1" id="Layer_1" xmlns="http://www.w3.org/2000/svg" xmlns:xlink="http://www.w3.org/1999/xlink" x="0px" y="0px"
	 width="100%" viewBox="0 0 256 256" enable-background="new 0 0 256 256" xml:space="preserve">
<path fill="#FFFEFE" opacity="1.000000" stroke="none" 
	d="
M144.000000,257.000000 
	C96.000000,257.000000 48.500004,257.000000 1.000006,257.000000 
	C1.000004,171.666672 1.000004,86.333351 1.000002,1.000018 
	C86.333321,1.000012 171.666641,1.000012 257.000000,1.000006 
	C257.000000,86.333313 257.000000,171.666626 257.000000,256.999969 
	C219.500000,257.000000 182.000000,257.000000 144.000000,257.000000 
M188.712616,69.393013 
	C180.436996,64.305290 172.161362,59.217564 163.328781,53.709484 
	C162.898407,53.469814 162.484695,53.191841 162.035217,52.996048 
	C149.170944,47.392391 135.662628,46.705322 121.819290,46.736740 
	C110.421646,46.762608 99.987778,49.416927 89.100945,54.010765 
	C80.350250,57.847878 72.298286,62.724422 65.720184,69.805344 
	C74.547821,64.760483 83.375465,59.715614 92.967262,54.410892 
	C93.919106,54.117004 94.876358,53.839462 95.821991,53.526775 
	C109.541504,48.990292 123.488998,46.168156 137.940613,49.085911 
	C146.691040,50.852612 155.330933,53.166809 164.307465,55.819111 
	C167.013092,57.373875 169.768097,58.849510 172.414124,60.499832 
	C177.967941,63.963757 183.464493,67.519508 189.043289,71.724937 
	C195.571701,79.888855 202.100113,88.052773 208.628510,96.216690 
	C204.382828,85.809761 197.708984,77.163818 188.712616,69.393013 
M36.582539,157.030640 
	C36.297787,155.598969 36.013035,154.167297 35.728287,152.735626 
	C35.269634,152.822128 34.810986,152.908615 34.352337,152.995117 
	C34.621254,154.655624 34.890175,156.316116 35.114124,158.763428 
	C37.243942,168.432526 40.607212,177.568039 46.541893,185.576324 
	C43.247631,176.332626 39.953369,167.088913 36.582539,157.030640 
M156.046295,202.360901 
	C155.519363,202.919342 154.992432,203.477783 153.728500,203.962738 
	C148.491501,202.470291 143.312103,200.568649 137.929749,203.737869 
	C136.952438,204.313324 135.328613,203.932617 134.025879,203.788635 
	C128.804962,203.211670 123.592949,202.554138 117.384880,201.999954 
	C113.485107,201.975540 109.585335,201.951126 104.814796,201.965332 
	C99.048904,202.653870 93.283012,203.342392 87.423653,203.113312 
	C87.059494,202.810699 86.698860,202.248764 86.330658,202.243744 
	C78.943321,202.143356 71.553169,202.020767 64.169960,202.186661 
	C63.400539,202.203949 62.671253,204.007477 61.819710,205.902115 
	C61.819710,208.844254 61.819710,211.786377 61.819710,214.919800 
	C106.198364,214.919800 149.898010,214.919800 193.938583,214.919800 
	C193.938583,211.332336 193.938583,208.200882 194.036407,204.225174 
	C193.158966,203.502625 192.283707,202.155228 191.403717,202.152145 
	C179.900955,202.111740 168.397522,202.261536 156.046295,202.360901 
M73.995552,225.073151 
	C73.991882,227.968491 73.988205,230.863815 73.407997,234.187683 
	C74.950089,234.701477 76.491066,235.659683 78.034431,235.663559 
	C109.775948,235.743210 141.517731,235.719070 173.259460,235.690674 
	C174.708832,235.689377 176.158005,235.454926 178.587723,235.243942 
	C178.008316,230.922073 177.483490,227.007339 176.045227,222.893372 
	C143.126434,222.864670 110.207619,222.822418 77.288910,222.866135 
	C76.188377,222.867584 75.089005,223.738235 73.995552,225.073151 
M47.264469,90.891785 
	C39.473160,103.147354 34.486389,116.332764 33.647522,131.745407 
	C32.836384,138.433517 32.808151,145.062714 35.346283,151.520645 
	C35.346283,144.650116 35.346283,137.779587 35.703594,130.139160 
	C37.138821,116.113762 42.074333,103.274841 49.255730,90.480751 
	C54.410179,84.240135 59.564629,77.999527 64.719078,71.758911 
	C57.513268,76.691338 51.214375,82.359276 47.264469,90.891785 
M209.160019,131.688477 
	C207.213867,126.719978 203.629074,124.938835 199.186096,126.732834 
	C195.032028,128.410187 193.191315,133.236557 194.871902,138.044678 
	C196.338013,142.239212 200.703827,144.320160 204.931091,142.839401 
	C208.903244,141.447968 210.741852,136.869232 209.080261,132.468521 
	C209.080261,132.468521 209.131607,132.499680 209.160019,131.688477 
M152.562073,143.204605 
	C153.477661,142.535675 154.980118,142.025894 155.211792,141.171509 
	C156.528015,136.317429 157.540604,131.381027 158.600830,126.717354 
	C153.754517,124.425003 153.690460,128.351013 152.847748,130.070435 
	C151.602814,128.675125 150.223816,126.164436 149.318375,126.324951 
	C147.667908,126.617554 146.298218,128.493958 144.631378,129.856796 
	C143.976776,127.498062 143.215546,124.471664 139.257431,126.742439 
	C140.165054,131.097229 140.935120,135.495102 142.068558,139.797211 
	C142.404175,141.071075 143.724121,142.953659 144.663528,142.996094 
	C146.058731,143.059113 147.516708,141.732391 149.090134,140.924133 
	C149.747772,141.464203 150.802261,142.330170 152.562073,143.204605 
M173.599289,150.170532 
	C173.599289,155.223831 173.599289,160.277130 173.599289,165.384445 
	C178.814453,165.662186 183.505554,166.357681 185.956116,161.228699 
	C187.745514,157.483505 187.519821,153.575134 184.497528,150.642731 
	C181.453506,147.689224 177.615173,147.316422 173.599289,150.170532 
M217.072205,138.529037 
	C218.289032,137.918625 219.505875,137.308228 221.352509,136.381897 
	C221.352509,139.372574 221.352509,141.001892 221.352509,142.907867 
	C222.958878,142.907867 224.348267,142.907867 225.687561,142.907867 
	C225.687561,137.188049 225.687561,131.765625 225.687561,125.939049 
	C224.035446,126.161331 222.695267,126.341644 221.752029,126.468552 
	C220.602829,129.085266 222.931778,133.847900 217.018555,131.870651 
	C217.018555,130.009613 217.018555,128.235641 217.018555,126.277115 
	C215.458405,126.277115 214.219772,126.277115 212.801193,126.277115 
	C212.801193,131.915710 212.801193,137.335648 212.801193,142.713364 
	C216.446915,144.129868 217.489594,142.633926 217.072205,138.529037 
M199.038940,157.406982 
	C199.450287,161.875748 201.408463,165.088730 206.253082,165.419586 
	C210.146423,165.685471 212.951157,163.990250 214.165985,160.049026 
	C215.821289,154.678848 213.421783,149.708588 208.572388,148.612335 
	C203.446304,147.453568 200.248306,150.131241 199.038940,157.406982 
M161.847992,159.261292 
	C161.816757,156.776947 161.645935,154.284668 161.786697,151.810104 
	C162.002533,148.016068 160.226608,147.705643 157.089844,148.865509 
	C157.089844,152.457153 156.850769,155.939926 157.153778,159.374878 
	C157.489883,163.185013 159.905075,165.464523 163.748886,165.426956 
	C167.513107,165.390167 170.084518,163.360184 170.321091,159.392868 
	C170.534409,155.815704 170.366119,152.215759 170.366119,148.532257 
	C168.595627,148.532257 167.348083,148.532257 165.705017,148.532257 
	C165.705017,151.920792 165.869171,155.058426 165.646820,158.168427 
	C165.500656,160.212769 165.011032,162.604416 161.847992,159.261292 
M133.914871,153.289368 
	C135.376724,153.373291 136.838593,153.457214 138.300446,153.541153 
	C138.473694,153.043701 138.646957,152.546265 138.820206,152.048813 
	C137.326965,150.964844 135.975540,149.512131 134.311554,148.872070 
	C130.610840,147.448578 126.443947,149.195801 125.611641,152.368668 
	C124.570938,156.335938 127.539490,157.517654 130.367096,158.718307 
	C131.393173,159.153992 132.391510,159.654938 133.402512,160.126114 
	C133.284225,160.447861 133.165955,160.769608 133.047684,161.091339 
	C130.624557,160.774750 128.201431,160.458160 125.778305,160.141571 
	C125.540085,160.657135 125.301865,161.172684 125.063644,161.688232 
	C126.784233,162.878067 128.356964,164.644623 130.257675,165.131897 
	C133.704498,166.015564 137.186768,165.304550 138.348694,161.336716 
	C139.440628,157.607834 136.183151,156.658905 133.655167,155.439606 
	C132.473633,154.869720 131.296066,154.291626 130.116699,153.717255 
	C130.211990,153.466766 130.307281,153.216263 130.402573,152.965775 
	C131.338165,152.965775 132.273758,152.965775 133.914871,153.289368 
M146.836945,165.569794 
	C149.012024,165.901733 150.294815,165.391983 150.154053,162.765076 
	C149.979507,159.508057 150.112228,156.234573 150.112228,152.968201 
	C150.502701,153.180237 150.893188,153.392258 151.283661,153.604294 
	C152.440765,152.192642 153.597855,150.780975 155.514282,148.442947 
	C149.635895,148.442947 145.557281,148.442947 141.478683,148.442947 
	C141.161285,148.849274 140.843872,149.255615 140.526474,149.661942 
	C141.999557,151.065918 143.472641,152.469894 145.072433,153.994629 
	C145.379745,157.482941 145.722565,161.374344 146.836945,165.569794 
M84.500008,192.089798 
	C120.119278,192.089798 155.738541,192.089798 191.357803,192.089798 
	C191.356766,191.810776 191.355713,191.531754 191.354660,191.252731 
	C147.777496,191.252731 104.200340,191.252731 60.623180,191.252731 
	C60.620449,191.531784 60.617722,191.810852 60.614990,192.089905 
	C68.243340,192.089905 75.871681,192.089905 84.500008,192.089798 
M190.412827,160.886856 
	C190.158936,162.344116 189.905029,163.801376 189.629135,165.384949 
	C192.200043,165.384949 193.984451,165.384949 195.722473,165.384949 
	C195.722473,159.612701 195.722473,154.048767 195.722473,148.581024 
	C193.751572,148.581024 191.842926,148.581024 189.877731,148.581024 
	C190.163330,152.627838 190.425919,156.348602 190.412827,160.886856 
M229.810013,130.093445 
	C232.630402,129.624664 233.086151,131.174805 232.978622,133.537903 
	C232.837509,136.638885 232.944000,139.751144 232.944000,143.277679 
	C234.736298,143.080994 236.062576,142.935440 237.694580,142.756332 
	C237.694580,138.326523 237.694580,134.409332 237.694580,130.492157 
	C238.043747,130.714508 238.392914,130.936844 238.742065,131.159195 
	C239.934219,129.855652 241.126373,128.552124 242.318542,127.248596 
	C237.858734,126.059219 234.395798,126.078094 230.933182,126.053734 
	C227.685089,126.030884 227.963974,127.755501 229.810013,130.093445 
M133.379837,135.466858 
	C133.379837,133.850754 133.379837,132.234665 133.379837,130.618561 
	C133.741470,130.826859 134.103119,131.035172 134.464752,131.243469 
	C135.784286,129.963669 137.103836,128.683884 138.423370,127.404083 
	C138.114410,127.024338 137.805435,126.644592 137.496460,126.264847 
	C133.408417,126.264847 129.320358,126.264847 125.232307,126.264847 
	C124.925354,126.633430 124.618401,127.002007 124.311455,127.370590 
	C125.619278,128.693375 126.927101,130.016159 129.138184,132.252533 
	C129.138184,134.888474 129.138184,138.959473 129.138184,143.331329 
	C130.800293,143.091263 132.009369,142.916626 133.379608,142.718719 
	C133.379608,140.361557 133.379608,138.380966 133.379837,135.466858 
M166.119095,134.532410 
	C166.566238,131.801453 167.013397,129.070496 167.470291,126.279953 
	C164.854630,126.279953 162.906738,126.279953 161.092865,126.279953 
	C161.092865,131.898895 161.092865,137.300842 161.092865,142.956604 
	C162.930984,142.956604 165.020935,142.956604 167.549942,142.956604 
	C167.042999,140.266556 166.581039,137.815216 166.119095,134.532410 
M190.809494,134.486084 
	C191.144791,131.832123 191.480103,129.178162 191.844330,126.295166 
	C189.349655,126.295166 187.284409,126.295166 185.418274,126.295166 
	C185.418274,132.042084 185.418274,137.526764 185.418274,142.866547 
	C187.627075,142.866547 189.674225,142.866547 191.991516,142.866547 
	C191.557571,140.118073 191.183533,137.749069 190.809494,134.486084 
M175.080429,130.622269 
	C174.995331,129.186249 174.910217,127.750229 174.718399,124.513268 
	C172.713120,126.437111 170.929581,127.338158 170.867523,128.345261 
	C170.568314,133.202103 170.732834,138.087494 170.732834,142.853424 
	C174.994415,142.853424 178.543640,142.853424 182.144257,142.853424 
	C182.791306,136.298218 176.965652,140.843460 175.080536,137.974152 
	C175.080536,136.154648 175.080536,133.863022 175.080429,130.622269 
M206.462173,185.305450 
	C210.277573,183.899948 215.447296,172.888458 214.425049,168.187454 
	C211.819397,173.734299 209.250244,179.203491 206.462173,185.305450 
z"/>
<path fill="#FFFBFB" opacity="1.000000" stroke="none" 
	d="
M87.517120,204.030930 
	C93.283012,203.342392 99.048904,202.653870 105.204330,202.407013 
	C109.693863,203.128769 113.793091,203.425766 117.897301,203.613617 
	C118.031395,203.619751 118.216385,202.513885 118.377640,201.926392 
	C123.592949,202.554138 128.804962,203.211670 134.025879,203.788635 
	C135.328613,203.932617 136.952438,204.313324 137.929749,203.737869 
	C143.312103,200.568649 148.491501,202.470291 154.516754,203.986725 
	C155.860229,203.960495 156.415482,203.910294 157.437408,203.923859 
	C167.768280,203.980240 177.633072,203.916016 187.496078,204.020447 
	C189.173080,204.038177 190.842438,204.779343 192.428772,205.625214 
	C192.342209,208.520523 192.342209,210.976883 192.342209,213.666687 
	C149.125809,213.666687 106.446602,213.666687 63.139343,213.666687 
	C63.139343,210.605453 63.139343,207.817657 63.474785,204.785706 
	C71.712524,204.371338 79.614822,204.201141 87.517120,204.030930 
z"/>
<path fill="#4C3824" opacity="1.000000" stroke="none" 
	d="
M152.209412,143.200378 
	C150.802261,142.330170 149.747772,141.464203 149.090134,140.924133 
	C147.516708,141.732391 146.058731,143.059113 144.663528,142.996094 
	C143.724121,142.953659 142.404175,141.071075 142.068558,139.797211 
	C140.935120,135.495102 140.165054,131.097229 139.257431,126.742439 
	C143.215546,124.471664 143.976776,127.498062 144.631378,129.856796 
	C146.298218,128.493958 147.667908,126.617554 149.318375,126.324951 
	C150.223816,126.164436 151.602814,128.675125 152.847748,130.070435 
	C153.690460,128.351013 153.754517,124.425003 158.600830,126.717354 
	C157.540604,131.381027 156.528015,136.317429 155.211792,141.171509 
	C154.980118,142.025894 153.477661,142.535675 152.209412,143.200378 
z"/>
<path fill="#FF7377" opacity="1.000000" stroke="none" 
	d="
M176.958649,223.092590 
	C177.483490,227.007339 178.008316,230.922073 178.587723,235.243942 
	C176.158005,235.454926 174.708832,235.689377 173.259460,235.690674 
	C141.517731,235.719070 109.775948,235.743210 78.034431,235.663559 
	C76.491066,235.659683 74.950089,234.701477 74.033630,234.021362 
	C75.110069,233.815353 75.560875,233.775681 76.476440,233.791931 
	C109.636604,233.807983 142.332001,233.768127 175.247772,233.745102 
	C175.792816,233.609451 175.900879,233.362228 175.860199,232.577560 
	C175.872131,229.749435 175.816162,227.364059 175.803040,224.765610 
	C175.845871,224.552551 175.812653,224.119186 176.052399,224.006195 
	C176.514313,223.626343 176.736481,223.359467 176.958649,223.092590 
z"/>
<path fill="#503C29" opacity="1.000000" stroke="none" 
	d="
M173.660080,149.746353 
	C177.615173,147.316422 181.453506,147.689224 184.497528,150.642731 
	C187.519821,153.575134 187.745514,157.483505 185.956116,161.228699 
	C183.505554,166.357681 178.814453,165.662186 173.599289,165.384445 
	C173.599289,160.277130 173.599289,155.223831 173.660080,149.746353 
M181.054749,160.668015 
	C183.299957,155.494415 182.727921,153.727310 178.201950,152.936661 
	C179.301025,155.671555 175.800064,159.233109 181.054749,160.668015 
z"/>
<path fill="#4E3A26" opacity="1.000000" stroke="none" 
	d="
M217.067291,138.952225 
	C217.489594,142.633926 216.446915,144.129868 212.801193,142.713364 
	C212.801193,137.335648 212.801193,131.915710 212.801193,126.277115 
	C214.219772,126.277115 215.458405,126.277115 217.018555,126.277115 
	C217.018555,128.235641 217.018555,130.009613 217.018555,131.870651 
	C222.931778,133.847900 220.602829,129.085266 221.752029,126.468552 
	C222.695267,126.341644 224.035446,126.161331 225.687561,125.939049 
	C225.687561,131.765625 225.687561,137.188049 225.687561,142.907867 
	C224.348267,142.907867 222.958878,142.907867 221.352509,142.907867 
	C221.352509,141.001892 221.352509,139.372574 221.352509,136.381897 
	C219.505875,137.308228 218.289032,137.918625 217.067291,138.952225 
z"/>
<path fill="#503C29" opacity="1.000000" stroke="none" 
	d="
M199.038864,157.000900 
	C200.248306,150.131241 203.446304,147.453568 208.572388,148.612335 
	C213.421783,149.708588 215.821289,154.678848 214.165985,160.049026 
	C212.951157,163.990250 210.146423,165.685471 206.253082,165.419586 
	C201.408463,165.088730 199.450287,161.875748 199.038864,157.000900 
M209.960190,158.193161 
	C209.185837,156.399368 208.515594,154.544189 207.531219,152.874191 
	C207.373322,152.606323 205.059113,153.062653 205.018326,153.359528 
	C204.706924,155.626999 203.833221,158.468246 204.824539,160.111359 
	C206.319107,162.588608 208.446609,161.135681 209.960190,158.193161 
z"/>
<path fill="#523F2B" opacity="1.000000" stroke="none" 
	d="
M161.970093,159.716187 
	C165.011032,162.604416 165.500656,160.212769 165.646820,158.168427 
	C165.869171,155.058426 165.705017,151.920792 165.705017,148.532257 
	C167.348083,148.532257 168.595627,148.532257 170.366119,148.532257 
	C170.366119,152.215759 170.534409,155.815704 170.321091,159.392868 
	C170.084518,163.360184 167.513107,165.390167 163.748886,165.426956 
	C159.905075,165.464523 157.489883,163.185013 157.153778,159.374878 
	C156.850769,155.939926 157.089844,152.457153 157.089844,148.865509 
	C160.226608,147.705643 162.002533,148.016068 161.786697,151.810104 
	C161.645935,154.284668 161.816757,156.776947 161.970093,159.716187 
z"/>
<path fill="#503C29" opacity="1.000000" stroke="none" 
	d="
M209.114151,132.422028 
	C210.741852,136.869232 208.903244,141.447968 204.931091,142.839401 
	C200.703827,144.320160 196.338013,142.239212 194.871902,138.044678 
	C193.191315,133.236557 195.032028,128.410187 199.186096,126.732834 
	C203.629074,124.938835 207.213867,126.719978 208.758347,131.961975 
	C206.977509,131.834549 205.618042,131.224060 204.213608,131.092010 
	C202.825180,130.961487 200.249268,131.088470 200.169296,131.492935 
	C199.758820,133.569366 199.637131,135.866577 200.185226,137.876511 
	C200.367294,138.544128 202.840897,138.586838 204.803314,139.038803 
	C203.488190,136.529358 202.707748,135.040146 201.646225,133.014587 
	C204.901169,132.756317 207.007660,132.589172 209.114151,132.422028 
z"/>
<path fill="#523F2B" opacity="1.000000" stroke="none" 
	d="
M133.562103,153.127563 
	C132.273758,152.965775 131.338165,152.965775 130.402573,152.965775 
	C130.307281,153.216263 130.211990,153.466766 130.116699,153.717255 
	C131.296066,154.291626 132.473633,154.869720 133.655167,155.439606 
	C136.183151,156.658905 139.440628,157.607834 138.348694,161.336716 
	C137.186768,165.304550 133.704498,166.015564 130.257675,165.131897 
	C128.356964,164.644623 126.784233,162.878067 125.063644,161.688232 
	C125.301865,161.172684 125.540085,160.657135 125.778305,160.141571 
	C128.201431,160.458160 130.624557,160.774750 133.047684,161.091339 
	C133.165955,160.769608 133.284225,160.447861 133.402512,160.126114 
	C132.391510,159.654938 131.393173,159.153992 130.367096,158.718307 
	C127.539490,157.517654 124.570938,156.335938 125.611641,152.368668 
	C126.443947,149.195801 130.610840,147.448578 134.311554,148.872070 
	C135.975540,149.512131 137.326965,150.964844 138.820206,152.048813 
	C138.646957,152.546265 138.473694,153.043701 138.300446,153.541153 
	C136.838593,153.457214 135.376724,153.373291 133.562103,153.127563 
z"/>
<path fill="#596C92" opacity="1.000000" stroke="none" 
	d="
M89.806610,53.991478 
	C99.987778,49.416927 110.421646,46.762608 121.819290,46.736740 
	C135.662628,46.705322 149.170944,47.392391 162.035217,52.996048 
	C162.484695,53.191841 162.898407,53.469814 163.608154,54.199898 
	C163.931854,54.871883 163.976166,55.053455 164.020477,55.235023 
	C155.330933,53.166809 146.691040,50.852612 137.940613,49.085911 
	C123.488998,46.168156 109.541504,48.990292 95.821991,53.526775 
	C94.876358,53.839462 93.919106,54.117004 92.209457,54.349834 
	C90.903313,54.189678 90.354958,54.090580 89.806610,53.991478 
z"/>
<path fill="#FF5258" opacity="1.000000" stroke="none" 
	d="
M63.139343,205.029846 
	C63.139343,207.817657 63.139343,210.605453 63.139343,213.666687 
	C106.446602,213.666687 149.125809,213.666687 192.342209,213.666687 
	C192.342209,210.976883 192.342209,208.520523 192.666245,205.603989 
	C192.990280,205.143814 193.460602,205.057892 193.460602,205.057892 
	C193.460602,205.057892 193.938583,205.069427 193.938583,205.069427 
	C193.938583,208.200882 193.938583,211.332336 193.938583,214.919800 
	C149.898010,214.919800 106.198364,214.919800 61.819710,214.919800 
	C61.819710,211.786377 61.819710,208.844254 62.176334,205.435654 
	C62.735088,204.989426 62.937214,205.009644 63.139343,205.029846 
z"/>
<path fill="#594734" opacity="1.000000" stroke="none" 
	d="
M146.451172,165.417786 
	C145.722565,161.374344 145.379745,157.482941 145.072433,153.994629 
	C143.472641,152.469894 141.999557,151.065918 140.526474,149.661942 
	C140.843872,149.255615 141.161285,148.849274 141.478683,148.442947 
	C145.557281,148.442947 149.635895,148.442947 155.514282,148.442947 
	C153.597855,150.780975 152.440765,152.192642 151.283661,153.604294 
	C150.893188,153.392258 150.502701,153.180237 150.112228,152.968201 
	C150.112228,156.234573 149.979507,159.508057 150.154053,162.765076 
	C150.294815,165.391983 149.012024,165.901733 146.451172,165.417786 
z"/>
<path fill="#FF8D54" opacity="1.000000" stroke="none" 
	d="
M84.000015,192.089844 
	C75.871681,192.089905 68.243340,192.089905 60.614990,192.089905 
	C60.617722,191.810852 60.620449,191.531784 60.623180,191.252731 
	C104.200340,191.252731 147.777496,191.252731 191.354660,191.252731 
	C191.355713,191.531754 191.356766,191.810776 191.357803,192.089798 
	C155.738541,192.089798 120.119278,192.089798 84.000015,192.089844 
z"/>
<path fill="#523F2B" opacity="1.000000" stroke="none" 
	d="
M190.550659,160.478119 
	C190.425919,156.348602 190.163330,152.627838 189.877731,148.581024 
	C191.842926,148.581024 193.751572,148.581024 195.722473,148.581024 
	C195.722473,154.048767 195.722473,159.612701 195.722473,165.384949 
	C193.984451,165.384949 192.200043,165.384949 189.629135,165.384949 
	C189.905029,163.801376 190.158936,162.344116 190.550659,160.478119 
z"/>
<path fill="#4C3824" opacity="1.000000" stroke="none" 
	d="
M229.400116,129.986877 
	C227.963974,127.755501 227.685089,126.030884 230.933182,126.053734 
	C234.395798,126.078094 237.858734,126.059219 242.318542,127.248596 
	C241.126373,128.552124 239.934219,129.855652 238.742065,131.159195 
	C238.392914,130.936844 238.043747,130.714508 237.694580,130.492157 
	C237.694580,134.409332 237.694580,138.326523 237.694580,142.756332 
	C236.062576,142.935440 234.736298,143.080994 232.944000,143.277679 
	C232.944000,139.751144 232.837509,136.638885 232.978622,133.537903 
	C233.086151,131.174805 232.630402,129.624664 229.400116,129.986877 
z"/>
<path fill="#493420" opacity="1.000000" stroke="none" 
	d="
M133.379730,135.933609 
	C133.379608,138.380966 133.379608,140.361557 133.379608,142.718719 
	C132.009369,142.916626 130.800293,143.091263 129.138184,143.331329 
	C129.138184,138.959473 129.138184,134.888474 129.138184,132.252533 
	C126.927101,130.016159 125.619278,128.693375 124.311455,127.370590 
	C124.618401,127.002007 124.925354,126.633430 125.232307,126.264847 
	C129.320358,126.264847 133.408417,126.264847 137.496460,126.264847 
	C137.805435,126.644592 138.114410,127.024338 138.423370,127.404083 
	C137.103836,128.683884 135.784286,129.963669 134.464752,131.243469 
	C134.103119,131.035172 133.741470,130.826859 133.379837,130.618561 
	C133.379837,132.234665 133.379837,133.850754 133.379730,135.933609 
z"/>
<path fill="#4C3824" opacity="1.000000" stroke="none" 
	d="
M166.119095,134.948135 
	C166.581039,137.815216 167.042999,140.266556 167.549942,142.956604 
	C165.020935,142.956604 162.930984,142.956604 161.092865,142.956604 
	C161.092865,137.300842 161.092865,131.898895 161.092865,126.279953 
	C162.906738,126.279953 164.854630,126.279953 167.470291,126.279953 
	C167.013397,129.070496 166.566238,131.801453 166.119095,134.948135 
z"/>
<path fill="#4E3A26" opacity="1.000000" stroke="none" 
	d="
M190.809494,134.933075 
	C191.183533,137.749069 191.557571,140.118073 191.991516,142.866547 
	C189.674225,142.866547 187.627075,142.866547 185.418274,142.866547 
	C185.418274,137.526764 185.418274,132.042084 185.418274,126.295166 
	C187.284409,126.295166 189.349655,126.295166 191.844330,126.295166 
	C191.480103,129.178162 191.144791,131.832123 190.809494,134.933075 
z"/>
<path fill="#FFB02B" opacity="1.000000" stroke="none" 
	d="
M33.966957,130.999298 
	C34.486389,116.332764 39.473160,103.147354 47.833645,90.879738 
	C48.581841,90.941841 48.760864,91.015984 48.939884,91.090134 
	C42.074333,103.274841 37.138821,116.113762 35.296318,130.549271 
	C34.583477,131.014191 34.276119,131.027496 33.966957,130.999298 
z"/>
<path fill="#FF5258" opacity="1.000000" stroke="none" 
	d="
M176.501938,222.992981 
	C176.736481,223.359467 176.514313,223.626343 175.848877,224.006485 
	C175.405609,224.119751 175.028732,224.273819 174.563812,224.200470 
	C141.402405,224.174423 108.705933,224.221725 75.677551,224.190292 
	C74.893456,224.142288 74.441269,224.173004 73.989090,224.203720 
	C75.089005,223.738235 76.188377,222.867584 77.288910,222.866135 
	C110.207619,222.822418 143.126434,222.864670 176.501938,222.992981 
z"/>
<path fill="#493420" opacity="1.000000" stroke="none" 
	d="
M175.080475,131.096832 
	C175.080536,133.863022 175.080536,136.154648 175.080536,137.974152 
	C176.965652,140.843460 182.791306,136.298218 182.144257,142.853424 
	C178.543640,142.853424 174.994415,142.853424 170.732834,142.853424 
	C170.732834,138.087494 170.568314,133.202103 170.867523,128.345261 
	C170.929581,127.338158 172.713120,126.437111 174.718399,124.513268 
	C174.910217,127.750229 174.995331,129.186249 175.080475,131.096832 
z"/>
<path fill="#FFA47B" opacity="1.000000" stroke="none" 
	d="
M193.987488,204.647308 
	C193.938583,205.069427 193.460602,205.057892 193.460602,205.057892 
	C193.460602,205.057892 192.990280,205.143814 192.752808,205.165039 
	C190.842438,204.779343 189.173080,204.038177 187.496078,204.020447 
	C177.633072,203.916016 167.768280,203.980240 157.424515,203.549469 
	C156.928024,202.862045 156.911133,202.612778 156.894257,202.363525 
	C168.397522,202.261536 179.900955,202.111740 191.403717,202.152145 
	C192.283707,202.155228 193.158966,203.502625 193.987488,204.647308 
z"/>
<path fill="#FFA172" opacity="1.000000" stroke="none" 
	d="
M36.659103,157.845215 
	C39.953369,167.088913 43.247631,176.332626 46.541893,185.576324 
	C40.607212,177.568039 37.243942,168.432526 35.512257,158.345276 
	C36.159958,157.899826 36.409531,157.872528 36.659103,157.845215 
z"/>
<path fill="#D9E4FD" opacity="1.000000" stroke="none" 
	d="
M189.054688,69.970390 
	C197.708984,77.163818 204.382828,85.809761 208.628510,96.216690 
	C202.100113,88.052773 195.571701,79.888855 189.017303,71.113358 
	C189.012436,70.324661 189.033554,70.147530 189.054688,69.970390 
z"/>
<path fill="#A2B2D3" opacity="1.000000" stroke="none" 
	d="
M89.453781,54.001122 
	C90.354958,54.090580 90.903313,54.189678 91.827377,54.479759 
	C83.375465,59.715614 74.547821,64.760483 65.720184,69.805344 
	C72.298286,62.724422 80.350250,57.847878 89.453781,54.001122 
z"/>
<path fill="#A2B2D3" opacity="1.000000" stroke="none" 
	d="
M188.883652,69.681702 
	C189.033554,70.147530 189.012436,70.324661 188.987930,70.769669 
	C183.464493,67.519508 177.967941,63.963757 172.414124,60.499832 
	C169.768097,58.849510 167.013092,57.373875 164.163971,55.527069 
	C163.976166,55.053455 163.931854,54.871883 163.886642,54.410076 
	C172.161362,59.217564 180.436996,64.305290 188.883652,69.681702 
z"/>
<path fill="#D9E4FD" opacity="1.000000" stroke="none" 
	d="
M49.097809,90.785446 
	C48.760864,91.015984 48.581841,90.941841 48.150589,90.721169 
	C51.214375,82.359276 57.513268,76.691338 64.719078,71.758911 
	C59.564629,77.999527 54.410179,84.240135 49.097809,90.785446 
z"/>
<path fill="#FFAA84" opacity="1.000000" stroke="none" 
	d="
M63.474785,204.785706 
	C62.937214,205.009644 62.735088,204.989426 62.228149,204.975708 
	C62.671253,204.007477 63.400539,202.203949 64.169960,202.186661 
	C71.553169,202.020767 78.943321,202.143356 86.330658,202.243744 
	C86.698860,202.248764 87.059494,202.810699 87.470383,203.572113 
	C79.614822,204.201141 71.712524,204.371338 63.474785,204.785706 
z"/>
<path fill="#FF9763" opacity="1.000000" stroke="none" 
	d="
M33.807240,131.372345 
	C34.276119,131.027496 34.583477,131.014191 35.117661,130.934219 
	C35.346283,137.779587 35.346283,144.650116 35.346283,151.520645 
	C32.808151,145.062714 32.836384,138.433517 33.807240,131.372345 
z"/>
<path fill="#FFA172" opacity="1.000000" stroke="none" 
	d="
M206.571625,184.989059 
	C209.250244,179.203491 211.819397,173.734299 214.425049,168.187454 
	C215.447296,172.888458 210.277573,183.899948 206.571625,184.989059 
z"/>
<path fill="#E1DDDA" opacity="1.000000" stroke="none" 
	d="
M209.097198,132.445282 
	C207.007660,132.589172 204.901169,132.756317 201.646225,133.014587 
	C202.707748,135.040146 203.488190,136.529358 204.803314,139.038803 
	C202.840897,138.586838 200.367294,138.544128 200.185226,137.876511 
	C199.637131,135.866577 199.758820,133.569366 200.169296,131.492935 
	C200.249268,131.088470 202.825180,130.961487 204.213608,131.092010 
	C205.618042,131.224060 206.977509,131.834549 208.744141,132.367584 
	C209.131607,132.499680 209.080261,132.468521 209.097198,132.445282 
z"/>
<path fill="#FF9763" opacity="1.000000" stroke="none" 
	d="
M117.881256,201.963165 
	C118.216385,202.513885 118.031395,203.619751 117.897301,203.613617 
	C113.793091,203.425766 109.693863,203.128769 105.639709,202.387711 
	C109.585335,201.951126 113.485107,201.975540 117.881256,201.963165 
z"/>
<path fill="#FFF7F7" opacity="1.000000" stroke="none" 
	d="
M73.992325,224.638428 
	C74.441269,224.173004 74.893456,224.142288 75.675743,224.619781 
	C76.007797,227.997330 76.009735,230.866684 76.011673,233.736023 
	C75.560875,233.775681 75.110069,233.815353 74.321899,233.807098 
	C73.988205,230.863815 73.991882,227.968491 73.992325,224.638428 
z"/>
<path fill="#FF9763" opacity="1.000000" stroke="none" 
	d="
M36.620819,157.437927 
	C36.409531,157.872528 36.159958,157.899826 35.534740,157.951874 
	C34.890175,156.316116 34.621254,154.655624 34.352337,152.995117 
	C34.810986,152.908615 35.269634,152.822128 35.728287,152.735626 
	C36.013035,154.167297 36.297787,155.598969 36.620819,157.437927 
z"/>
<path fill="#FF9763" opacity="1.000000" stroke="none" 
	d="
M156.470276,202.362213 
	C156.911133,202.612778 156.928024,202.862045 156.957825,203.485703 
	C156.415482,203.910294 155.860229,203.960495 154.885254,204.023468 
	C154.992432,203.477783 155.519363,202.919342 156.470276,202.362213 
z"/>
<path fill="#FFFEFE" opacity="1.000000" stroke="none" 
	d="
M76.476440,233.791931 
	C76.009735,230.866684 76.007797,227.997330 76.007660,224.698517 
	C108.705933,224.221725 141.402405,224.174423 174.649200,224.352264 
	C175.348999,224.763412 175.535889,224.897171 175.760193,224.978668 
	C175.816162,227.364059 175.872131,229.749435 175.701920,232.659073 
	C175.275513,233.323166 175.126068,233.504807 175.027405,233.728256 
	C142.332001,233.768127 109.636604,233.807983 76.476440,233.791931 
z"/>
<path fill="#FFF7F7" opacity="1.000000" stroke="none" 
	d="
M175.803040,224.765610 
	C175.535889,224.897171 175.348999,224.763412 175.114120,224.425598 
	C175.028732,224.273819 175.405609,224.119751 175.609131,224.119476 
	C175.812653,224.119186 175.845871,224.552551 175.803040,224.765610 
z"/>
<path fill="#FFF7F7" opacity="1.000000" stroke="none" 
	d="
M175.247772,233.745102 
	C175.126068,233.504807 175.275513,233.323166 175.634033,233.101807 
	C175.900879,233.362228 175.792816,233.609451 175.247772,233.745102 
z"/>
<path fill="#E1DDDA" opacity="1.000000" stroke="none" 
	d="
M180.668671,160.889893 
	C175.800064,159.233109 179.301025,155.671555 178.201950,152.936661 
	C182.727921,153.727310 183.299957,155.494415 180.668671,160.889893 
z"/>
<path fill="#FFF7F7" opacity="1.000000" stroke="none" 
	d="
M209.854248,158.603729 
	C208.446609,161.135681 206.319107,162.588608 204.824539,160.111359 
	C203.833221,158.468246 204.706924,155.626999 205.018326,153.359528 
	C205.059113,153.062653 207.373322,152.606323 207.531219,152.874191 
	C208.515594,154.544189 209.185837,156.399368 209.854248,158.603729 
z"/>
</svg>